<?xml version="1.0" encoding="utf-8"?>
<!DOCTYPE svg PUBLIC "-//W3C//DTD SVG 1.1//EN" "http://www.w3.org/Graphics/SVG/1.1/DTD/svg11.dtd">
<svg version="1.1" xmlns="http://www.w3.org/2000/svg" xmlns:xlink="http://www.w3.org/1999/xlink" width="32" height="32" viewBox="0 0 500 500"><path fill="#FC6D26" d="M495.19865 280.22505l-27.55867-84.81467-54.61733-168.09733c-2.80934-8.648-15.04533-8.648-17.856 0l-54.61867 168.09733H159.18132l-54.62-168.09733c-2.80933-8.648-15.04533-8.648-17.856 0L32.088 195.41038 4.53065 280.22505c-2.51467 7.736.24 16.21066 6.82 20.992L249.864 474.50638l238.51465-173.28933c6.58-4.78134 9.33333-13.256 6.82-20.992"/><path fill="#E24329" d="M249.86452 474.50638l90.684-279.096h-181.368l90.684 279.096z"/><path fill="#FC6D26" d="M249.86452 474.50584l-90.684-279.09466h-127.092l217.776 279.09466z"/><path fill="#FCA326" d="M32.08852 195.41078L4.52986 280.22545c-2.51334 7.736.24 16.21066 6.82133 20.99066l238.5133 173.28936L32.0885 195.4108z"/><path fill="#E24329" d="M32.08852 195.41105h127.092L104.56186 27.31372c-2.81067-8.64933-15.04667-8.64933-17.856 0L32.08852 195.41105z"/><path fill="#FC6D26" d="M249.86452 474.50584l90.684-279.09466h127.092l-217.776 279.09466z"/><path fill="#FCA326" d="M467.64038 195.41078l27.55867 84.81467c2.51333 7.736-.24 16.21066-6.82134 20.99066L249.8644 474.50547 467.64038 195.4108z"/><path fill="#E24329" d="M467.64038 195.41105h-127.092l54.61867-168.09733c2.81066-8.64933 15.04666-8.64933 17.856 0l54.61733 168.09733z"/></svg>
