<svg xmlns="http://www.w3.org/2000/svg" width="117" height="122" viewBox="0 0 117 122" fill="#040f0f"><path d="M61.734 19.305a5 5 0 1 1 9.07 4.209l-10.268 22.59a5 5 0 0 1-9.072-4.208l10.27-22.591zm-32.67 70.59a5 5 0 0 1 9.072 4.21l-11.6 25a5 5 0 1 1-9.072-4.21l11.6-25zM40.19 65.908a5 5 0 0 1 9.082 4.186l-5.53 12a5 5 0 0 1-9.082-4.186l5.53-12zm10.156-4.937a4.985 4.985 0 1 1 0-9.97 4.985 4.985 0 0 1 0 9.97zm-8.98-34.075a5 5 0 1 1 9.07 4.21l-26 56a5 5 0 1 1-9.07-4.21l26-56zM52.465 2.898a5 5 0 0 1 9.072 4.206l-5.1 11a5 5 0 1 1-9.072-4.206l5.1-11zM5.059 104.912a5 5 0 0 1 9.085 4.179l-4.6 10a5 5 0 0 1-9.085-4.18l4.6-10zm9.692-4.01a4.95 4.95 0 1 1 0-9.9 4.95 4.95 0 0 1 0 9.9zM52.837 77.54a5 5 0 1 1 9.082 4.185l-4.377 9.369a5 5 0 1 1-9.082-4.185l4.377-9.37zm11.441-24.881c1.162-2.505 4.456-4.198 6.96-3.036a5 5 0 0 1 2.432 6.64L67.216 70.16a5 5 0 1 1-9.071-4.21l6.133-13.29zm10.307-5.189a4.985 4.985 0 1 1 0-9.97 4.985 4.985 0 0 1 0 9.97zm-5.9 51.5a4.985 4.985 0 1 1 0-9.97 4.985 4.985 0 0 1 0 9.97zm11.72-42.1a5 5 0 1 1 9.072 4.21l-10.5 22.652a5 5 0 1 1-9.07-4.209L80.405 56.87zm16.191 42.693l-7.13 15.342a5 5 0 0 0 9.07 4.209l7.452-15.947a5 5 0 0 0-2.431-6.64c-2.505-1.162-5.798.53-6.96 3.036zM88.4 78.41l-8.384 18.145a5 5 0 0 0 9.07 4.209l8.706-18.75a5 5 0 0 0-2.431-6.64c-2.505-1.162-5.799.53-6.961 3.035zm18.6 38.575a4.985 4.985 0 1 0 9.97 0 4.985 4.985 0 1 0-9.97 0"/></svg>
