<svg xmlns="http://www.w3.org/2000/svg" width="600" height="400" viewBox="0 0 600 400"><path d="M0 0h600v400H0V0zm499.79688 240.95313l59.625-26.64844v-10.4063l-59.625-26.64847v12.72655l45.0703 19.125-45.0703 19.125v12.72656zm-72.19532 21.02343h12.375L492.9922 139h-12.51564l-52.875 122.97656zm-84.39844-14.1328H359.375l17.57813-24.89064 17.5078 24.89063h16.17188L384.6875 211l25.3828-35.01563h-16.17186l-16.9453 24.04688-17.01564-24.04688h-16.10156l25.3125 36-25.9453 35.85938zm-106.59375 0h13.21875V148.6328h-13.21875v99.21095zm33.53907-35.01564c0 7.12504.98436 13.207 2.95312 18.2461 1.96876 5.0391 4.65233 8.77733 8.05078 11.21484 3.39846 2.4375 6.8789 4.1836 10.4414 5.23828 3.56253 1.0547 7.4531 1.58203 11.67188 1.58203h.42188c9.32817 0 17.69527-1.5703 25.10156-4.71093V232.4453c-6.84378 3.56253-15.11714 5.34376-24.8203 5.34376-11.90632 0-18.65625-6.0937-20.25-18.28125h49.5c.28124-3.1875.42187-6.5156.42187-9.9843 0-10.54693-2.87107-18.9609-8.6133-25.2422-5.7422-6.2813-13.4179-9.4219-23.02733-9.4219h-.14063c-21.14073 0-31.71093 12.6561-31.71093 37.96875zm-139.0078 35.01563h14.41405l10.3359-27.0703h40.0781l10.33593 27.0703h14.41405l-38.1797-96.04688h-13.0781l-38.3203 96.04688zM39.99998 214.3047l59.76563 26.64843v-12.72657l-45.2109-19.125 45.21095-19.125V177.25L40 203.89844v10.40625z"/><path d="M283.5078 207.5547h36.91408c-.1875-2.39065-.59766-4.67578-1.23047-6.85548-.6328-2.1797-1.5937-4.39452-2.8828-6.64453-1.28902-2.25008-3.1523-4.043-5.5898-5.37898-2.4375-1.33594-5.34372-2.0039-8.71874-2.0039-6.0469 0-10.48826 1.55857-13.3242 4.67578-2.83596 3.1172-4.5586 8.5195-5.16798 16.20704zm-122.83592.84374h30.51562l-15.2578-39.8672"/></svg>
