<svg xmlns="http://www.w3.org/2000/svg" width="426.667" height="426.667" version="1" viewBox="0 0 320 320"><path d="M150.2 3.8c-3.7 2-4.9 3.8-12.5 20.2-7.5 16-8.1 18.2-6.7 22.5 3.5 10.5 17.3 12.4 22.9 3.1C158 42.7 169 17.2 169 14.4 169 8.2 162.4 2 155.8 2c-1.3 0-3.8.8-5.6 1.8zm24.1 41.8c-4.2 2.1-5.4 4-16.1 27.9-4.9 11-10.7 23.6-12.7 28-2.1 4.4-4 9.7-4.3 11.7-1 7.9 4.5 14.2 12.5 14.2 7.2 0 9.5-2.6 16.7-18.4 1.8-4.1 7.5-16.5 12.5-27.6 5-11 9.3-21.6 9.5-23.5.5-4.7-2.5-10.3-6.8-12.3s-7.2-2-11.3 0zM122 65.2c-4.2 2.1-4.8 3.1-15.5 26.3-1.5 3.3-4.7 10-7 15-2.4 4.9-6.6 14.2-9.5 20.5-2.9 6.3-7.7 16.6-10.6 22.9-3 6.2-5.4 11.5-5.4 11.6 0 .2-2.9 6.5-6.5 14S61 189.3 61 189.4c0 .2-2.8 6.2-6.1 13.2-3.4 7.1-6.3 14.2-6.4 15.9-.6 6.4 4 12.8 10 13.9 7.7 1.4 12.3-2.4 18-15.1 2.1-4.8 6.3-14 9.3-20.3 3-6.3 6.7-14.2 8.2-17.5 6.4-13.8 22.1-47.6 26-56 2.3-5 6.4-13.9 9.2-19.9 2.7-6 6.3-13.7 8-17 3.4-7 3.9-13 1.4-16.8-3.9-6-10.3-7.7-16.6-4.6zm73.3 34.6c-6.1 2.9-8.5 12.7-4.5 18.1 9.6 13.2 29.6.2 21.2-13.7-3.4-5.6-10.4-7.4-16.7-4.4zM182 130.2c-4 2-5 3.3-9 11.3-12.5 25.1-14.4 29.8-14.5 35.3 0 4.9.3 5.6 3.7 8.8 3.1 2.8 4.6 3.4 8 3.4 5.7 0 10-2.8 12.5-8.1 14.9-31.3 17.3-36.9 17.3-40.2 0-3.6-3-9.1-5.7-10.5-4.3-2.3-7.8-2.3-12.3 0zm-49.1 4.3c-3.8 2.1-6.2 6.4-6.2 11 0 5.1 1.6 8.1 5.6 10.5 10.7 6.6 23.1-3.9 18.3-15.4-2.7-6.5-11.4-9.5-17.7-6.1zm89.3 7.5c-4.2 1.9-5.2 3.6-14 23-1.1 2.5-5.9 12.8-10.6 22.9-4.7 10.1-8.8 19.8-9.2 21.6-1.3 7.1 5.1 14.5 12.5 14.5 4.8 0 9.6-3.4 12-8.3 11.7-24.9 14.1-29.9 14.1-30.2 0-.2 3-6.6 6.6-14.2 7.2-15 8.2-19.9 5.1-24.6-3.7-5.8-10.1-7.5-16.5-4.7zm-100.8 22.2c-5.1 1.3-7.6 4.8-15.7 22.6-8.4 18.6-9.3 22.9-5.6 27.6 6.7 8.5 17.5 6.8 22.6-3.4 4.5-8.9 12.6-26.6 13.8-30 3.5-10-5.1-19.5-15.1-16.8zm32.2 29.8c-1.5.5-3.7 1.7-4.9 2.7-2.7 2.4-14.5 27.2-15.3 32.1-1.6 9.8 8.8 17.1 17.9 12.7 1.8-.9 3.9-2.6 4.8-3.8 2.6-3.7 13.1-26.9 13.6-30.3.8-4.9-2.1-9.9-7.1-12.4-4.6-2.2-4.8-2.2-9-1zm90.8 1.9c-5.3 2.4-6.6 4.4-15.4 23.6-4 8.8-9.1 19.7-11.2 24.3-4.1 9-4.5 11.6-2.4 16.5 2.4 6 9.8 8.9 15.9 6.4 3-1.3 8.7-7.2 8.7-9 0-.4 4.8-10.9 10.6-23.4 5.8-12.5 10.8-23.9 11.1-25.4.8-3.9-1.4-9.6-4.6-11.8-4.1-2.9-8-3.3-12.7-1.2zM90.2 226.7c-2.8 1.3-4.3 3.6-9.2 13.7-12.3 25.4-26.9 57.8-27 59.9-.4 4.7.1 6.7 2.6 9.6 5.2 6.3 15.1 6.1 19.7-.2 4-5.5 31.9-66.9 32.4-71.2.5-5.1-2.4-10.1-7.2-12.1-4.4-1.8-7.2-1.7-11.3.3zm90.1 5.2c-3.6 1.8-5 3.7-6.3 8.4-2.2 7.9 4.6 15.8 13.1 15.2 12.8-.9 16-18.4 4.4-23.9-3.8-1.8-7.3-1.8-11.2.3zm-138 5.1c-7.1 3.6-9.3 12.1-4.6 18.4 7.1 9.7 22.9 4.5 22.6-7.5-.2-9.6-9.5-15.2-18-10.9zm224 12.7c-2.1.7-3.9 1.3-4 1.3-.8 0-6.4 9.7-8.8 15-1.5 3.6-5.5 12.1-8.8 19-7.3 15.4-7.9 20.7-2.7 25.8 4.1 4.2 9.5 5 14.9 2.3 4.2-2.2 3.8-1.4 15.1-25.6 12-25.7 12-25.7 10.1-30.7-1.4-3.6-5.8-7.5-9.1-8-1.6-.3-4.7.1-6.7.9zm-237 15.4c-2.1 1-4.4 2.8-5.1 3.9-3.1 5.1-14.2 30.5-14.2 32.6 0 13.9 17.7 17.9 24.3 5.5 5.7-10.5 12.9-27.7 12.9-30.6 0-9.4-9.6-15.5-17.9-11.4zm263.1 24.8c-2.9 1.3-7.4 6.8-7.5 9.4-.5 7.4 1.4 11.1 7.4 14 9.6 4.8 20.3-5 16.8-15.6-2-6-11-10.2-16.7-7.8z"/></svg>
