<?xml version="1.0" standalone="no"?>
<!DOCTYPE svg PUBLIC "-//W3C//DTD SVG 20010904//EN"
 "http://www.w3.org/TR/2001/REC-SVG-20010904/DTD/svg10.dtd">
<svg version="1.0" xmlns="http://www.w3.org/2000/svg"
 width="320.000000pt" height="320.000000pt" viewBox="0 0 320.000000 320.000000"
 preserveAspectRatio="xMidYMid meet">
<metadata>
Created by potrace 1.11, written by Peter Selinger 2001-2013
</metadata>
<g transform="translate(0.000000,320.000000) scale(0.100000,-0.100000)"
fill="#000000" stroke="none">
<path d="M1502 3162 c-37 -20 -49 -38 -125 -202 -75 -160 -81 -182 -67 -225
35 -105 173 -124 229 -31 41 69 151 324 151 352 0 62 -66 124 -132 124 -13 0
-38 -8 -56 -18z"/>
<path d="M1743 2744 c-42 -21 -54 -40 -161 -279 -49 -110 -107 -236 -127 -280
-21 -44 -40 -97 -43 -117 -10 -79 45 -142 125 -142 72 0 95 26 167 184 18 41
75 165 125 276 50 110 93 216 95 235 5 47 -25 103 -68 123 -43 20 -72 20 -113
0z"/>
<path d="M1220 2548 c-42 -21 -48 -31 -155 -263 -15 -33 -47 -100 -70 -150
-24 -49 -66 -142 -95 -205 -29 -63 -77 -166 -106 -229 -30 -62 -54 -115 -54
-116 0 -2 -29 -65 -65 -140 -36 -75 -65 -138 -65 -139 0 -2 -28 -62 -61 -132
-34 -71 -63 -142 -64 -159 -6 -64 40 -128 100 -139 77 -14 123 24 180 151 21
48 63 140 93 203 30 63 67 142 82 175 64 138 221 476 260 560 23 50 64 139 92
199 27 60 63 137 80 170 34 70 39 130 14 168 -39 60 -103 77 -166 46z"/>
<path d="M1953 2202 c-61 -29 -85 -127 -45 -181 96 -132 296 -2 212 137 -34
56 -104 74 -167 44z"/>
<path d="M1820 1898 c-40 -20 -50 -33 -90 -113 -125 -251 -144 -298 -145 -353
0 -49 3 -56 37 -88 31 -28 46 -34 80 -34 57 0 100 28 125 81 149 313 173 369
173 402 0 36 -30 91 -57 105 -43 23 -78 23 -123 0z"/>
<path d="M1329 1855 c-38 -21 -62 -64 -62 -110 0 -51 16 -81 56 -105 107 -66
231 39 183 154 -27 65 -114 95 -177 61z"/>
<path d="M2222 1780 c-42 -19 -52 -36 -140 -230 -11 -25 -59 -128 -106 -229
-47 -101 -88 -198 -92 -216 -13 -71 51 -145 125 -145 48 0 96 34 120 83 117
249 141 299 141 302 0 2 30 66 66 142 72 150 82 199 51 246 -37 58 -101 75
-165 47z"/>
<path d="M1214 1558 c-51 -13 -76 -48 -157 -226 -84 -186 -93 -229 -56 -276
67 -85 175 -68 226 34 45 89 126 266 138 300 35 100 -51 195 -151 168z"/>
<path d="M1536 1260 c-15 -5 -37 -17 -49 -27 -27 -24 -145 -272 -153 -321 -16
-98 88 -171 179 -127 18 9 39 26 48 38 26 37 131 269 136 303 8 49 -21 99 -71
124 -46 22 -48 22 -90 10z"/>
<path d="M2444 1241 c-53 -24 -66 -44 -154 -236 -40 -88 -91 -197 -112 -243
-41 -90 -45 -116 -24 -165 24 -60 98 -89 159 -64 30 13 87 72 87 90 0 4 48
109 106 234 58 125 108 239 111 254 8 39 -14 96 -46 118 -41 29 -80 33 -127
12z"/>
<path d="M902 933 c-28 -13 -43 -36 -92 -137 -123 -254 -269 -578 -270 -599
-4 -47 1 -67 26 -96 52 -63 151 -61 197 2 40 55 319 669 324 712 5 51 -24 101
-72 121 -44 18 -72 17 -113 -3z"/>
<path d="M1803 881 c-36 -18 -50 -37 -63 -84 -22 -79 46 -158 131 -152 128 9
160 184 44 239 -38 18 -73 18 -112 -3z"/>
<path d="M423 830 c-71 -36 -93 -121 -46 -184 71 -97 229 -45 226 75 -2 96
-95 152 -180 109z"/>
<path d="M2663 703 c-21 -7 -39 -13 -40 -13 -8 0 -64 -97 -88 -150 -15 -36
-55 -121 -88 -190 -73 -154 -79 -207 -27 -258 41 -42 95 -50 149 -23 42 22 38
14 151 256 120 257 120 257 101 307 -14 36 -58 75 -91 80 -16 3 -47 -1 -67 -9z"/>
<path d="M293 549 c-21 -10 -44 -28 -51 -39 -31 -51 -142 -305 -142 -326 0
-139 177 -179 243 -55 57 105 129 277 129 306 0 94 -96 155 -179 114z"/>
<path d="M2924 301 c-29 -13 -74 -68 -75 -94 -5 -74 14 -111 74 -140 96 -48
203 50 168 156 -20 60 -110 102 -167 78z"/>
</g>
</svg>
