<?xml version="1.0" standalone="no"?>
<!DOCTYPE svg PUBLIC "-//W3C//DTD SVG 20010904//EN"
 "http://www.w3.org/TR/2001/REC-SVG-20010904/DTD/svg10.dtd">
<svg version="1.0" xmlns="http://www.w3.org/2000/svg"
 width="16.000000pt" height="16.000000pt" viewBox="0 0 16.000000 16.000000"
 preserveAspectRatio="xMidYMid meet">
<metadata>
Created by potrace 1.11, written by Peter Selinger 2001-2013
</metadata>
<g transform="translate(0.000000,16.000000) scale(0.002000,-0.002000)"
fill="#000000" stroke="none">
<path d="M0 4000 l0 -4000 4000 0 4000 0 0 4000 0 4000 -4000 0 -4000 0 0
-4000z m7560 5 l0 -3565 -3565 0 -3565 0 0 3565 0 3565 3565 0 3565 0 0 -3565z"/>
<path d="M640 4005 l0 -3355 3355 0 3355 0 0 3355 0 3355 -3355 0 -3355 0 0
-3355z m4285 75 c336 -844 618 -1554 628 -1577 l17 -43 -308 0 -307 0 -144
380 -144 380 -668 0 -667 0 -28 -72 c-15 -40 -80 -210 -144 -378 l-116 -305
-308 -3 c-187 -1 -306 1 -304 7 1 5 284 716 628 1580 l625 1571 315 -2 315 -3
610 -1535z"/>
<path d="M3766 4357 c-126 -331 -232 -608 -234 -614 -3 -10 94 -13 465 -13
l470 0 -229 608 c-127 334 -233 610 -236 614 -4 4 -110 -264 -236 -595z"/>
</g>
</svg>
