<?xml version="1.0" standalone="no"?>
<!DOCTYPE svg PUBLIC "-//W3C//DTD SVG 20010904//EN"
 "http://www.w3.org/TR/2001/REC-SVG-20010904/DTD/svg10.dtd">
<svg version="1.0" xmlns="http://www.w3.org/2000/svg"
 width="360.000000pt" height="360.000000pt" viewBox="0 0 360.000000 360.000000"
 preserveAspectRatio="xMidYMid meet">
<metadata>
Created by potrace 1.11, written by Peter Selinger 2001-2013
</metadata>
<g transform="translate(0.000000,360.000000) scale(0.100000,-0.100000)"
fill="#000000" stroke="none">
<path d="M2018 3156 c-23 -11 -50 -32 -59 -46 -14 -19 -332 -1028 -353 -1120
-2 -8 -14 -49 -27 -90 -13 -41 -24 -77 -24 -80 -1 -3 -4 -12 -8 -20 -8 -21
-68 -218 -77 -255 -5 -16 -39 -131 -78 -255 -107 -343 -232 -754 -236 -777
-15 -75 149 -156 248 -123 46 15 58 42 152 362 l78 268 499 -3 500 -2 86 -290
c48 -159 90 -296 94 -303 47 -74 241 -38 284 53 20 41 19 45 -62 305 -58 191
-103 336 -174 570 -23 74 -59 191 -81 260 -21 69 -52 170 -69 225 -16 55 -59
197 -96 315 -36 118 -79 260 -96 315 -17 55 -34 111 -39 125 -5 14 -23 72 -40
130 -100 333 -120 389 -151 414 -38 32 -81 44 -163 44 -48 0 -78 -6 -108 -22z
m191 -696 c91 -311 250 -849 265 -900 8 -25 24 -81 36 -125 12 -44 26 -89 30
-100 24 -60 61 -55 -405 -55 -234 0 -425 3 -425 8 0 4 11 43 24 87 60 199 151
503 193 640 24 83 55 186 68 230 63 211 94 312 103 335 5 14 10 30 11 35 1 6
7 28 13 50 13 50 10 57 87 -205z"/>
<path d="M723 750 c-115 -26 -183 -159 -138 -268 60 -142 251 -166 339 -41
103 146 -29 348 -201 309z"/>
</g>
</svg>
