<?xml version="1.0" standalone="no"?>
<!DOCTYPE svg PUBLIC "-//W3C//DTD SVG 20010904//EN"
 "http://www.w3.org/TR/2001/REC-SVG-20010904/DTD/svg10.dtd">
<svg version="1.0" xmlns="http://www.w3.org/2000/svg"
 width="16.000000pt" height="16.000000pt" viewBox="0 0 16.000000 16.000000"
 preserveAspectRatio="xMidYMid meet">
<metadata>
Created by potrace 1.11, written by Peter Selinger 2001-2013
</metadata>
<g transform="translate(0.000000,16.000000) scale(0.010526,-0.010526)"
fill="#000000" stroke="none">
<path d="M727 1077 c-9 -7 -41 -75 -72 -152 -31 -77 -65 -159 -76 -182 -10
-24 -19 -46 -19 -49 0 -3 -7 -20 -15 -37 -8 -18 -30 -72 -50 -122 -20 -49 -39
-96 -42 -102 -4 -9 7 -13 35 -13 l40 0 38 98 c21 53 42 100 47 103 7 5 267 5
288 0 4 0 23 -46 44 -101 l38 -100 39 0 c34 0 39 3 33 18 -11 30 -257 637
-259 639 -7 9 -58 9 -69 0z m92 -235 c28 -73 49 -136 47 -140 -2 -4 -53 -7
-113 -6 -88 0 -108 3 -105 15 6 36 107 278 113 271 3 -4 29 -67 58 -140z"/>
<path d="M200 811 c-187 -84 -195 -89 -198 -118 -2 -16 3 -34 10 -40 16 -12
400 -184 404 -181 3 4 7 40 5 59 -1 11 -52 38 -161 84 -88 37 -160 70 -160 74
0 3 72 35 160 71 l160 65 0 38 c0 23 -5 37 -12 36 -7 0 -101 -40 -208 -88z"/>
<path d="M1096 873 c1 -16 2 -32 3 -38 0 -5 22 -19 49 -29 26 -11 74 -31 107
-46 33 -15 82 -35 108 -45 26 -10 50 -21 52 -25 2 -4 -69 -38 -158 -76 l-161
-69 -1 -33 c-1 -18 2 -35 5 -37 6 -4 362 151 399 173 8 4 16 23 17 41 2 29 -1
34 -39 50 -23 10 -62 27 -87 38 -159 72 -278 123 -286 123 -6 0 -9 -12 -8 -27z"/>
</g>
</svg>
